name Walk8.mot
datacolumns 19
datarows 10
range 4.77700000 4.78600000
endheader

                time	   L_ground_force_vx	   L_ground_force_vy	   L_ground_force_vz	   L_ground_force_px	   L_ground_force_py	   L_ground_force_pz	   R_ground_force_vx	   R_ground_force_vy	   R_ground_force_vz	   R_ground_force_px	   R_ground_force_py	   R_ground_force_pz	   L_ground_torque_x	   L_ground_torque_y	   L_ground_torque_z	   R_ground_torque_x	   R_ground_torque_y	   R_ground_torque_z	
          4.77700000	          0.00000000	          0.00000000	          0.00000000	         -0.00000000	          0.00000000	         -0.00000000	         34.99164180	        263.35148710	          3.87436391	          0.18730014	          0.00000000	          0.14569728	          0.00000000	         -0.00000000	          0.00000000	          0.00000000	         -9.16926700	          0.00000000	
          4.77800000	          0.00000000	          0.00000000	          0.00000000	         -0.00000000	          0.00000000	         -0.00000000	         33.42336316	        254.31414746	          3.99454085	          0.18745581	          0.00000000	          0.14517555	          0.00000000	         -0.00000000	          0.00000000	          0.00000000	         -8.95932264	          0.00000000	
          4.77900000	          0.00000000	          0.00000000	          0.00000000	         -0.00000000	          0.00000000	         -0.00000000	         31.86472226	        245.38976240	          4.09579100	          0.18757054	          0.00000000	          0.14461750	          0.00000000	         -0.00000000	          0.00000000	          0.00000000	         -8.74701479	          0.00000000	
          4.78000000	          0.00000000	          0.00000000	          0.00000000	         -0.00000000	          0.00000000	         -0.00000000	         30.31742756	        236.58460299	          4.17885232	          0.18764082	          0.00000000	          0.14402132	          0.00000000	         -0.00000000	          0.00000000	          0.00000000	         -8.53258737	          0.00000000	
          4.78100000	          0.00000000	          0.00000000	          0.00000000	         -0.00000000	          0.00000000	         -0.00000000	         28.78320554	        227.90477985	          4.24448895	          0.18766302	          0.00000000	          0.14338514	          0.00000000	          0.00000000	          0.00000000	          0.00000000	         -8.31629234	          0.00000000	
          4.78200000	          0.00000000	          0.00000000	          0.00000000	         -0.00000000	          0.00000000	         -0.00000000	         27.26379663	        219.35622073	          4.29348849	          0.18763336	          0.00000000	          0.14270708	          0.00000000	          0.00000000	          0.00000000	          0.00000000	         -8.09838924	          0.00000000	
          4.78300000	          0.00000000	          0.00000000	          0.00000000	         -0.00000000	          0.00000000	         -0.00000000	         25.76095087	        210.94464883	          4.32665913	          0.18754793	          0.00000000	          0.14198523	          0.00000000	          0.00000000	          0.00000000	          0.00000000	         -7.87914461	          0.00000000	
          4.78400000	          0.00000000	          0.00000000	          0.00000000	         -0.00000000	          0.00000000	         -0.00000000	         24.27642349	        202.67556116	          4.34482645	          0.18740273	          0.00000000	          0.14121768	          0.00000000	          0.00000000	          0.00000000	          0.00000000	         -7.65883148	          0.00000000	
          4.78500000	          0.00000000	          0.00000000	          0.00000000	         -0.00000000	          0.00000000	         -0.00000000	         22.81197040	        194.55420636	          4.34883018	          0.18719360	          0.00000000	          0.14040253	          0.00000000	          0.00000000	          0.00000000	          0.00000000	         -7.43772865	          0.00000000	
          4.78600000	          0.00000000	          0.00000000	          0.00000000	         -0.00000000	          0.00000000	         -0.00000000	         21.36934359	        186.58556190	          4.33952075	          0.18691631	          0.00000000	          0.13953788	          0.00000000	          0.00000000	          0.00000000	          0.00000000	         -7.21611985	          0.00000000	
